HIERARCHY
ROOT hip
{
  OFFSET 0 0 0
  CHANNELS 6 Xposition Yposition Zposition Zrotation Yrotation Xrotation
  JOINT abdomen
  {
    OFFSET 0 20.6881 -0.73152
    CHANNELS 3 Zrotation Xrotation Yrotation
    JOINT chest
    {
      OFFSET 0 11.7043 -0.48768
      CHANNELS 3 Zrotation Xrotation Yrotation
      JOINT neck
      {
        OFFSET 0 22.1894 -2.19456
        CHANNELS 3 Zrotation Xrotation Yrotation
        JOINT head
        {
          OFFSET -0.24384 7.07133 1.2192
          CHANNELS 3 Zrotation Xrotation Yrotation
          JOINT leftEye
          {
            OFFSET 4.14528 8.04674 8.04672
            CHANNELS 3 Zrotation Xrotation Yrotation
            End Site
            {
              OFFSET 1 0 0
            }
          }
          JOINT rightEye
          {
            OFFSET -3.6576 8.04674 8.04672
            CHANNELS 3 Zrotation Xrotation Yrotation
            End Site
            {
              OFFSET 1 0 0
            }
          }
        }
      }
      JOINT rCollar
      {
        OFFSET -2.68224 19.2634 -4.8768
        CHANNELS 3 Zrotation Xrotation Yrotation
        JOINT rShldr
        {
          OFFSET -8.77824 -1.95073 1.46304
          CHANNELS 3 Zrotation Xrotation Yrotation
          JOINT rForeArm
          {
            OFFSET -28.1742 -1.7115 0.48768
            CHANNELS 3 Zrotation Xrotation Yrotation
            JOINT rHand
            {
              OFFSET -22.5879 0.773209 7.07136
              CHANNELS 3 Zrotation Xrotation Yrotation
              JOINT rThumb1
              {
                OFFSET -1.2192 -0.487915 3.41376
                CHANNELS 3 Zrotation Xrotation Yrotation
                JOINT rThumb2
                {
                  OFFSET -3.37035 -0.52449 3.41376
                  CHANNELS 3 Zrotation Xrotation Yrotation
                  End Site
                  {
                    OFFSET -1.78271 -1.18214 1.43049
                  }
                }
              }
              JOINT rIndex1
              {
                OFFSET -7.75947 0.938293 5.60832
                CHANNELS 3 Zrotation Xrotation Yrotation
                JOINT rIndex2
                {
                  OFFSET -2.54057 -0.884171 1.56538
                  CHANNELS 3 Zrotation Xrotation Yrotation
                  End Site
                  {
                    OFFSET -1.62519 -0.234802 1.16502
                  }
                }
              }
              JOINT rMid1
              {
                OFFSET -8.24714 1.18213 3.41376
                CHANNELS 3 Zrotation Xrotation Yrotation
                JOINT rMid2
                {
                  OFFSET -3.10165 -0.590103 1.0647
                  CHANNELS 3 Zrotation Xrotation Yrotation
                  End Site
                  {
                    OFFSET -2.48547 -0.328903 0.83742
                  }
                }
              }
              JOINT rRing1
              {
                OFFSET -8.82822 0.546677 1.51678
                CHANNELS 3 Zrotation Xrotation Yrotation
                JOINT rRing2
                {
                  OFFSET -2.60934 -0.819778 -0.0198488
                  CHANNELS 3 Zrotation Xrotation Yrotation
                  End Site
                  {
                    OFFSET -2.33842 -0.294052 0.168128
                  }
                }
              }
              JOINT rPinky1
              {
                OFFSET -8.27202 -0.0477905 -0.4584
                CHANNELS 3 Zrotation Xrotation Yrotation
                JOINT rPinky2
                {
                  OFFSET -1.82734 -0.647385 -0.700984
                  CHANNELS 3 Zrotation Xrotation Yrotation
                  End Site
                  {
                    OFFSET -1.69225 -0.51767 -0.607171
                  }
                }
              }
            }
          }
        }
      }
      JOINT lCollar
      {
        OFFSET 2.68224 19.2634 -4.8768
        CHANNELS 3 Zrotation Xrotation Yrotation
        JOINT lShldr
        {
          OFFSET 8.77824 -1.95073 1.46304
          CHANNELS 3 Zrotation Xrotation Yrotation
          JOINT lForeArm
          {
            OFFSET 28.1742 -1.7115 0.48768
            CHANNELS 3 Zrotation Xrotation Yrotation
            JOINT lHand
            {
              OFFSET 22.5879 0.773209 7.07136
              CHANNELS 3 Zrotation Xrotation Yrotation
              JOINT lThumb1
              {
                OFFSET 1.2192 -0.487915 3.41376
                CHANNELS 3 Zrotation Xrotation Yrotation
                JOINT lThumb2
                {
                  OFFSET 3.37035 -0.52449 3.41376
                  CHANNELS 3 Zrotation Xrotation Yrotation
                  End Site
                  {
                    OFFSET 1.78271 -1.18214 1.43049
                  }
                }
              }
              JOINT lIndex1
              {
                OFFSET 7.75947 0.938293 5.60832
                CHANNELS 3 Zrotation Xrotation Yrotation
                JOINT lIndex2
                {
                  OFFSET 2.54057 -0.884171 1.56538
                  CHANNELS 3 Zrotation Xrotation Yrotation
                  End Site
                  {
                    OFFSET 1.62519 -0.234802 1.16502
                  }
                }
              }
              JOINT lMid1
              {
                OFFSET 8.24714 1.18213 3.41376
                CHANNELS 3 Zrotation Xrotation Yrotation
                JOINT lMid2
                {
                  OFFSET 3.10165 -0.590103 1.0647
                  CHANNELS 3 Zrotation Xrotation Yrotation
                  End Site
                  {
                    OFFSET 2.48547 -0.328903 0.83742
                  }
                }
              }
              JOINT lRing1
              {
                OFFSET 8.82822 0.546677 1.51678
                CHANNELS 3 Zrotation Xrotation Yrotation
                JOINT lRing2
                {
                  OFFSET 2.60934 -0.819778 -0.0198488
                  CHANNELS 3 Zrotation Xrotation Yrotation
                  End Site
                  {
                    OFFSET 2.33842 -0.294052 0.168128
                  }
                }
              }
              JOINT lPinky1
              {
                OFFSET 8.27202 -0.0477905 -0.4584
                CHANNELS 3 Zrotation Xrotation Yrotation
                JOINT lPinky2
                {
                  OFFSET 1.82734 -0.647385 -0.700984
                  CHANNELS 3 Zrotation Xrotation Yrotation
                  End Site
                  {
                    OFFSET 1.69225 -0.51767 -0.607171
                  }
                }
              }
            }
          }
        }
      }
    }
  }
  JOINT rButtock
  {
    OFFSET -8.77824 4.35084 1.2192
    CHANNELS 3 Zrotation Xrotation Yrotation
    JOINT rThigh
    {
      OFFSET 0 -1.70687 -2.19456
      CHANNELS 3 Zrotation Xrotation Yrotation
      JOINT rShin
      {
        OFFSET 0 -36.8199 0.73152
        CHANNELS 3 Zrotation Xrotation Yrotation
        JOINT rFoot
        {
          OFFSET 0.73152 -45.1104 -5.12064
          CHANNELS 3 Zrotation Xrotation Yrotation
          End Site
          {
            OFFSET -1.1221 -3.69964 12.103
          }
        }
      }
    }
  }
  JOINT lButtock
  {
    OFFSET 8.77824 4.35084 1.2192
    CHANNELS 3 Zrotation Xrotation Yrotation
    JOINT lThigh
    {
      OFFSET 0 -1.70687 -2.19456
      CHANNELS 3 Zrotation Xrotation Yrotation
      JOINT lShin
      {
        OFFSET 0 -36.8199 0.73152
        CHANNELS 3 Zrotation Xrotation Yrotation
        JOINT lFoot
        {
          OFFSET -0.73152 -45.1104 -5.12064
          CHANNELS 3 Zrotation Xrotation Yrotation
          End Site
          {
            OFFSET 1.1221 -3.69964 12.103
          }
        }
      }
    }
  }
}
MOTION
Frames:	4
Frame Time:	0.00833333
51.8285 81.0364 110.637 -180.934 -6.9244 192.623 4.2337 7.478 6.97339 -1.93768 -11.4097 1.9456 -2.64807 9.97585 -0.878686 0.736259 -36.3126 -1.71628 -0.0 0.0 0.0 -0.0 0.0 0.0 1.17669e-13 -3.40319e-13 3.8266e-14 -1.48202 9.75949 44.7438 -22.3028 -16.2188 44.6159 -0.00520914 -2.06034 -0.289688 2.65483e-09 1.46199e-08 5.42189e-10 4.58787e-09 2.52623e-08 9.36448e-10 2.65483e-09 1.46199e-08 5.42183e-10 7.73091 5.47488 0.417314 2.65483e-09 1.46199e-08 5.42186e-10 2.90554 0.965183 0.102902 2.65484e-09 1.46199e-08 5.42189e-10 10.2786 0.731801 0.0259123 2.65483e-09 1.46199e-08 5.42199e-10 2.22167 -0.733487 -0.20892 1.17699e-13 -3.40319e-13 3.8117e-14 -0.0375834 33.2492 -52.0671 21.8378 -15.5158 -43.3536 0.00805454 2.56161 -0.360253 -2.5454e-09 -7.60661e-09 -2.72609e-10 -4.40287e-09 -1.3121e-08 -4.65595e-10 -2.5454e-09 -7.60661e-09 -2.72605e-10 -7.73091 5.47488 -0.417314 -2.5454e-09 -7.60662e-09 -2.72605e-10 -2.90554 0.965183 -0.102902 -2.5454e-09 -7.60661e-09 -2.72605e-10 -10.2786 0.731801 -0.0259123 -2.5454e-09 -7.60661e-09 -2.72605e-10 -2.22167 -0.733487 0.20892 -2.03217e-16 0.0 -3.88251e-19 3.97257 -26.9198 -3.62078 -0.597566 51.3911 1.14709 -2.59731 -2.91495 -13.1419 2.03217e-16 0.0 3.88251e-19 0.0670388 -27.7357 -1.37939 0.560577 48.537 -0.970202 -1.3536 -6.57498 -7.09476
51.6844 82.5456 109.197 -181.011 -8.0391 191.285 4.28072 6.80914 6.98666 -1.92945 -11.3405 1.95594 -2.26056 10.8247 -0.768229 0.685105 -34.15 -1.38689 -0.0 0.0 0.0 -0.0 0.0 0.0 8.89492e-14 -2.83584e-13 -1.51348e-14 -2.99325 13.5936 43.9359 -22.3272 -16.2564 44.6841 -0.00304098 -0.888877 -0.125129 2.15765e-09 1.17113e-08 4.03136e-10 3.72874e-09 2.02354e-08 6.96321e-10 2.15765e-09 1.17113e-08 4.03131e-10 7.73091 5.47488 0.417314 2.15765e-09 1.17113e-08 4.03133e-10 2.90554 0.965183 0.102902 2.15766e-09 1.17113e-08 4.03136e-10 10.2786 0.731801 0.0259123 2.15765e-09 1.17113e-08 4.03145e-10 2.22167 -0.733487 -0.20892 8.89639e-14 -2.83586e-13 -1.52699e-14 -0.921985 35.603 -52.8447 21.5891 -15.1558 -42.6784 0.0203707 3.76505 -0.529851 -2.05493e-09 -6.2295e-09 -2.24354e-10 -3.55454e-09 -1.07468e-08 -3.83548e-10 -2.05493e-09 -6.2295e-09 -2.2435e-10 -7.73091 5.47488 -0.417314 -2.05493e-09 -6.22951e-09 -2.24351e-10 -2.90554 0.965183 -0.102902 -2.05493e-09 -6.2295e-09 -2.24351e-10 -10.2786 0.731801 -0.0259123 -2.05493e-09 -6.2295e-09 -2.24353e-10 -2.22167 -0.733487 0.20892 -2.03217e-16 0.0 -3.88251e-19 4.2668 -24.112 -2.90208 -0.525737 49.0499 0.993107 -1.40093 1.80453 -12.7408 2.03217e-16 0.0 3.88251e-19 -0.145747 -25.0895 -2.4066 0.493285 46.2282 -0.90413 -0.713552 -1.81743 -7.03907
51.542 84.116 107.838 -181.07 -9.1315 190.102 4.23303 6.13894 6.89779 -1.86256 -11.3169 1.93764 -1.86871 11.72 -0.639961 0.697916 -31.8932 -1.06551 -0.0 0.0 0.0 -0.0 0.0 0.0 3.32613e-14 -1.58265e-13 -8.75646e-14 -3.92588 17.6229 43.2623 -22.3487 -16.2894 44.7446 -0.00226396 0.133961 0.0187036 1.15987e-09 5.94444e-09 1.42844e-10 2.00456e-09 1.02696e-08 2.46978e-10 1.15987e-09 5.94444e-09 1.42839e-10 7.73091 5.47488 0.417314 1.15987e-09 5.94444e-09 1.42841e-10 2.90554 0.965183 0.102902 1.15988e-09 5.94445e-09 1.42844e-10 10.2786 0.731801 0.0259123 1.15986e-09 5.94445e-09 1.42851e-10 2.22167 -0.733487 -0.20892 3.32437e-14 -1.58269e-13 -8.77013e-14 -2.61696 37.9855 -53.2879 21.2739 -14.7054 -41.8593 0.0303614 4.75177 -0.669316 -1.10382e-09 -3.7572e-09 -1.38525e-10 -1.90933e-09 -6.48717e-09 -2.3807e-10 -1.10382e-09 -3.7572e-09 -1.38519e-10 -7.73091 5.47488 -0.417314 -1.10382e-09 -3.7572e-09 -1.38522e-10 -2.90554 0.965183 -0.102902 -1.10382e-09 -3.7572e-09 -1.38523e-10 -10.2786 0.731801 -0.0259123 -1.10382e-09 -3.7572e-09 -1.38528e-10 -2.22167 -0.733487 0.20892 -2.03217e-16 0.0 -3.88251e-19 4.6184 -21.4708 -1.85868 -0.461754 46.7516 0.846275 -0.127855 7.14478 -12.6389 2.03217e-16 0.0 3.88251e-19 -0.416598 -22.6088 -3.66552 0.435778 43.9556 -0.84806 0.00423024 3.53122 -6.89108
51.3616 85.8135 106.514 -181.229 -10.2731 189.012 4.10252 5.52436 6.73843 -1.76455 -11.279 1.89911 -1.53169 12.4984 -0.497894 0.742422 -29.7346 -0.748592 -0.0 0.0 0.0 -0.0 0.0 0.0 -2.62795e-14 -1.99082e-14 -1.39221e-13 -4.47088 21.6379 42.6222 -22.3795 -16.3374 44.8301 -0.00254509 1.1043 0.155232 1.44222e-10 -4.82814e-12 -1.82065e-10 2.49356e-10 -1.17595e-11 -3.14386e-10 1.44226e-10 -4.82481e-12 -1.82068e-10 7.73091 5.47488 0.417314 1.44223e-10 -4.82703e-12 -1.82068e-10 2.90554 0.965183 0.102902 1.44226e-10 -4.82614e-12 -1.82065e-10 10.2786 0.731801 0.0259123 1.44214e-10 -4.8227e-12 -1.8206e-10 2.22167 -0.733487 -0.20892 -2.63315e-14 -1.99134e-14 -1.39366e-13 -4.99348 40.1912 -53.3804 20.9116 -14.2021 -40.9425 0.0395012 5.61431 -0.791572 -1.0463e-10 -1.27965e-09 -1.07601e-10 -1.81333e-10 -2.22085e-09 -1.87845e-10 -1.04632e-10 -1.27965e-09 -1.07593e-10 -7.73091 5.47488 -0.417314 -1.04628e-10 -1.27965e-09 -1.07598e-10 -2.90554 0.965183 -0.102902 -1.04634e-10 -1.27965e-09 -1.076e-10 -10.2786 0.731801 -0.0259123 -1.04626e-10 -1.27965e-09 -1.07608e-10 -2.22167 -0.733487 0.20892 -2.03217e-16 0.0 -3.88251e-19 4.92316 -19.1143 -0.69013 -0.411446 44.6295 0.714974 1.15904 12.5598 -12.7404 2.03217e-16 0.0 3.88251e-19 -0.695238 -20.3641 -4.99584 0.385741 41.754 -0.792723 0.689626 8.92842 -6.59565
